<svg width="64" height="64" viewBox="0 0 64 64" fill="none" xmlns="http://www.w3.org/2000/svg">
  <!-- Background circle with gradient -->
  <circle cx="32" cy="32" r="30" fill="url(#gradient)" stroke="#C9A962" stroke-width="2"/>
  
  <!-- Dollar sign symbol for CFO -->
  <path d="M32 12 L32 52 M24 20 Q24 16 28 16 L36 16 Q40 16 40 20 Q40 24 36 24 L28 24 M28 24 L36 24 Q40 24 40 28 Q40 32 36 32 L28 32 Q24 32 24 36 Q24 40 28 40 L36 40 Q40 40 40 44 Q40 48 36 48 L28 48 Q24 48 24 44" 
        stroke="#080808" 
        stroke-width="3" 
        stroke-linecap="round" 
        stroke-linejoin="round" 
        fill="none"/>
  
  <!-- AI indicator -->
  <circle cx="48" cy="16" r="8" fill="#5E9E7E"/>
  <text x="48" y="20" font-family="Arial, sans-serif" font-size="10" font-weight="bold" fill="#080808" text-anchor="middle">AI</text>
  
  <!-- Gradient definition -->
  <defs>
    <linearGradient id="gradient" x1="0%" y1="0%" x2="100%" y2="100%">
      <stop offset="0%" style="stop-color:#C9A962;stop-opacity:1" />
      <stop offset="100%" style="stop-color:#D4965A;stop-opacity:1" />
    </linearGradient>
  </defs>
</svg>
